<svg width="212" height="46" viewBox="0 0 212 46" fill="none" xmlns="http://www.w3.org/2000/svg">
<path d="M175.518 19.2137V6.78613H178.409L185.266 15.0603H183.898V6.78613H187.343V19.2137H184.451L177.594 10.9395H178.962V19.2137H175.518Z" fill="#FFA300"/>
<path d="M193.304 16.4937H199.802V19.2137H189.826V6.78613H199.574V9.5062H193.304V16.5018V16.4937ZM193.051 11.591H198.825V14.2215H193.051V11.591Z" fill="#FFA300"/>
<path d="M204.403 19.2137V9.57135H200.584V6.78613H211.717V9.57135H207.913V19.2137H204.395H204.403Z" fill="#FFA300"/>
<path d="M5.30168 19.2053L0 6.79395H3.79505L8.26606 17.5358H6.03462L10.6115 6.79395H14.0889L8.77097 19.2053H5.31797H5.30168Z" fill="#0050FA"/>
<path d="M15.6934 19.2053V6.79395H19.2034V19.2053H15.6934Z" fill="#0050FA"/>
<path d="M26.9471 19.4494C25.9291 19.4494 24.9519 19.3191 24.0153 19.0667C23.0788 18.8142 22.3133 18.4884 21.7188 18.0812L22.8752 15.4915C23.429 15.8498 24.0723 16.1348 24.7971 16.371C25.522 16.599 26.2468 16.7131 26.9716 16.7131C27.4602 16.7131 27.843 16.6723 28.1443 16.5828C28.4375 16.4932 28.6573 16.3792 28.7877 16.2244C28.9261 16.0778 28.9912 15.8987 28.9912 15.7032C28.9912 15.4182 28.8609 15.1983 28.6003 15.0273C28.3397 14.8644 28.0058 14.726 27.5905 14.6201C27.1752 14.5142 26.7191 14.4083 26.2142 14.3025C25.7093 14.1966 25.2125 14.0582 24.7076 13.8953C24.2026 13.7324 23.7466 13.5125 23.3312 13.2519C22.9159 12.9832 22.582 12.6411 22.3214 12.2095C22.0608 11.7779 21.9305 11.2322 21.9305 10.5726C21.9305 9.83147 22.1341 9.15552 22.5413 8.55287C22.9485 7.95022 23.5593 7.46973 24.3737 7.10326C25.188 6.73678 26.206 6.55762 27.4195 6.55762C28.2339 6.55762 29.032 6.6472 29.8219 6.83451C30.6037 7.01368 31.3041 7.29057 31.9231 7.64076L30.8399 10.2468C30.2454 9.92919 29.6672 9.68488 29.089 9.53014C28.5108 9.36726 27.9488 9.29397 27.4032 9.29397C26.9146 9.29397 26.5318 9.34283 26.2305 9.4487C25.9373 9.54643 25.7255 9.68488 25.5952 9.84775C25.4649 10.0106 25.3998 10.2061 25.3998 10.4178C25.3998 10.6866 25.5301 10.9065 25.7825 11.0612C26.035 11.2241 26.3771 11.3544 26.7924 11.4521C27.2077 11.5498 27.6719 11.6557 28.1769 11.7616C28.6818 11.8674 29.1786 11.9977 29.6835 12.1606C30.1884 12.3235 30.6445 12.5352 31.0598 12.7958C31.4751 13.0646 31.809 13.4066 32.0615 13.8383C32.314 14.2699 32.4443 14.8074 32.4443 15.4589C32.4443 16.1837 32.2407 16.8434 31.8335 17.4542C31.4263 18.065 30.8155 18.5536 30.0092 18.9201C29.203 19.2865 28.1769 19.4657 26.9553 19.4657L26.9471 19.4494Z" fill="#0050FA"/>
<path d="M34.9453 19.2053V6.79395H38.4553V19.2053H34.9453Z" fill="#0050FA"/>
<path d="M44.4832 19.2053V9.57916H40.6719V6.79395H51.7883V9.57916H47.9932V19.2053H44.4832Z" fill="#0050FA"/>
<path d="M88.4179 12.8448C91.2112 12.8448 93.63 13.4963 94.7864 13.9605V9.96998H86.7321V6.66356H96.1301V0.604492H79.541V14.726C82.3018 13.7732 85.1033 12.8366 88.4179 12.8366V12.8448Z" fill="#0050FA"/>
<path d="M106.613 17.1777C106.808 17.1777 106.995 17.1777 107.183 17.1696C106.271 16.0294 105.749 14.5554 105.749 12.9999C105.749 9.73418 108.127 6.66393 111.735 6.66393C115.343 6.66393 117.721 9.72603 117.721 12.9999C117.721 13.3745 117.688 13.7491 117.631 14.1075C119.342 13.4397 121.296 12.9103 123.935 12.9103C124.301 12.9103 124.643 12.9184 124.985 12.9347C124.953 5.87397 119.529 0.0917969 111.735 0.0917969C103.941 0.0917969 98.5176 5.90654 98.5176 12.9999C98.5176 13.7654 98.5827 14.5146 98.7049 15.2395C100.741 16.2412 102.687 17.1777 106.613 17.1777Z" fill="#0050FA"/>
<path d="M162.75 15.5655V0.613281H154.695V13.2852C158.718 12.7151 161.634 14.4823 162.75 15.5573V15.5655Z" fill="#0050FA"/>
<path d="M150.239 15.0117V0.613281H143.016V17.0803C146.078 16.7952 148.195 15.8994 150.239 15.0117Z" fill="#0050FA"/>
<path d="M133.12 15.2072C133.787 15.5492 134.439 15.875 135.164 16.1681V0.613281H127.973V13.2852C130.204 13.725 131.727 14.4986 133.128 15.2072H133.12Z" fill="#0050FA"/>
<path d="M86.7321 15.9808C84.0039 16.2821 81.8132 17.1209 79.541 17.919V25.387H96.6432V19.3279H86.7321V15.9727V15.9808Z" fill="#0050FA"/>
<path d="M140.955 20.1828C136.264 20.1828 133.87 18.9612 131.761 17.8862C130.613 17.2998 129.489 16.7379 127.99 16.3633C128.145 22.064 132.209 25.9079 139.09 25.9079C145.158 25.9079 149.026 22.9517 149.995 18.383C147.69 19.3195 144.954 20.1828 140.963 20.1828H140.955Z" fill="#0050FA"/>
<path d="M162.75 19.3276C160.168 15.9153 155.526 16.1026 154.695 16.3958V25.3867H170.356V19.3276H162.75Z" fill="#0050FA"/>
<path d="M123.926 15.9242C120.79 15.9242 118.909 16.7793 116.735 17.7728C114.259 18.9048 111.458 20.1834 106.612 20.1834C103.672 20.1834 101.644 19.7274 99.9746 19.1003C102.092 23.1641 106.351 25.9004 111.726 25.9004C118.437 25.9004 123.396 21.6819 124.659 15.9242C124.423 15.9242 124.178 15.916 123.926 15.916V15.9242Z" fill="#0050FA"/>
<path d="M68.5383 20.1828C63.1552 20.2561 59.3113 18.0084 58.7168 17.6826V24.5642C60.6469 25.3867 63.4973 25.908 66.2906 25.908C72.4556 25.908 75.9249 23.3426 76.2425 19.0264C74.0355 19.686 71.6004 20.1421 68.5465 20.1828H68.5383Z" fill="#0050FA"/>
<path d="M73.8411 16.5262C74.5333 16.3796 75.2337 16.1923 75.9341 15.9724C75.0464 13.0976 72.4566 11.7457 69.2479 10.4183C66.7396 9.38399 65.2248 8.76505 65.2248 7.86922C65.2248 6.86752 66.4627 6.28931 68.4906 6.28931C70.7953 6.28931 73.1 6.87567 74.6148 7.86922V1.26452C72.8964 0.53971 70.3474 0.0917969 67.8716 0.0917969C61.9836 0.0917969 58.1641 3.2272 58.1641 7.86922C58.1641 12.5112 60.99 14.2703 64.9805 15.8177C64.9968 15.8177 65.005 15.8258 65.0212 15.834C67.8309 16.9252 70.893 17.1614 73.8411 16.518V16.5262Z" fill="#0050FA"/>
<path d="M44.289 41.8942C45.251 41.8942 45.901 41.1272 45.901 39.9442C45.901 38.7742 45.251 37.9942 44.289 37.9942C43.327 37.9942 42.677 38.7612 42.677 39.9442C42.677 41.1272 43.314 41.8942 44.289 41.8942ZM41.299 39.9442C41.299 38.1112 42.534 36.8112 44.289 36.8112C46.044 36.8112 47.279 38.1112 47.279 39.9442C47.279 41.7642 46.044 43.0772 44.289 43.0772C42.534 43.0772 41.299 41.7642 41.299 39.9442ZM51.2581 43.0252H49.8801V38.0202H48.7881V36.7982H49.8801V35.4982C49.8801 34.3542 50.6731 33.4832 51.8171 33.4052C52.3501 33.3662 53.0131 33.5742 53.3251 33.8862L52.6231 34.9002C52.3371 34.6532 52.1551 34.6012 51.9341 34.6272C51.5311 34.6662 51.2581 35.0042 51.2581 35.4982V36.7982H53.0001V38.0202H51.2581V43.0252ZM56.707 43.0252H55.329V38.0202H54.237V36.7982H55.329V35.4982C55.329 34.3542 56.122 33.4832 57.266 33.4052C57.799 33.3662 58.462 33.5742 58.774 33.8862L58.072 34.9002C57.786 34.6532 57.604 34.6012 57.383 34.6272C56.98 34.6662 56.707 35.0042 56.707 35.4982V36.7982H58.449V38.0202H56.707V43.0252ZM60.5737 36.8112H61.9517V43.0122H60.5737V36.8112ZM60.4827 34.4972C60.4827 34.0422 60.8077 33.7172 61.2627 33.7172C61.7177 33.7172 62.0427 34.0422 62.0427 34.4972C62.0427 34.9522 61.7177 35.2772 61.2627 35.2772C60.8077 35.2772 60.4827 34.9522 60.4827 34.4972ZM67.096 41.7512C67.577 41.7512 68.136 41.5042 68.487 41.1142L69.436 42.0632C68.903 42.6482 67.928 43.0642 67.148 43.0642C65.302 43.0642 64.002 41.7642 64.002 39.9442C64.002 38.1112 65.302 36.8112 67.148 36.8112C67.967 36.8112 68.877 37.2272 69.436 37.8252L68.487 38.7612C68.136 38.3712 67.577 38.1242 67.096 38.1242C66.069 38.1242 65.38 38.8392 65.38 39.9442C65.38 41.0362 66.069 41.7512 67.096 41.7512ZM71.3824 36.8112H72.7604V43.0122H71.3824V36.8112ZM71.2914 34.4972C71.2914 34.0422 71.6164 33.7172 72.0714 33.7172C72.5264 33.7172 72.8514 34.0422 72.8514 34.4972C72.8514 34.9522 72.5264 35.2772 72.0714 35.2772C71.6164 35.2772 71.2914 34.9522 71.2914 34.4972ZM78.0218 43.0772C76.3058 43.0772 75.0838 41.7772 75.0838 39.9572C75.0838 38.1372 76.3058 36.8372 78.0218 36.8372C78.6328 36.8372 79.3088 37.1232 79.8028 37.7082V36.8242H81.1808V43.0252H79.8028V42.1932C79.3088 42.8172 78.6328 43.0772 78.0218 43.0772ZM76.4618 39.9572C76.4618 41.1272 77.1248 41.9072 78.1128 41.9072C79.0228 41.9072 79.8028 41.0882 79.8158 39.9572C79.8028 38.8262 79.0228 38.0072 78.1128 38.0072C77.1248 38.0072 76.4618 38.7742 76.4618 39.9572ZM83.5067 33.7302H84.8847V43.0122H83.5067V33.7302ZM97.024 36.8242L94.398 43.0252H93.202L90.602 36.8242H92.11L93.8 41.1662L95.503 36.8242H97.024ZM99.0455 36.8112H100.424V43.0122H99.0455V36.8112ZM98.9545 34.4972C98.9545 34.0422 99.2795 33.7172 99.7345 33.7172C100.19 33.7172 100.515 34.0422 100.515 34.4972C100.515 34.9522 100.19 35.2772 99.7345 35.2772C99.2795 35.2772 98.9545 34.9522 98.9545 34.4972ZM103.852 40.8932C104.125 41.5692 104.801 41.8812 105.217 41.8812C105.867 41.8812 106.283 41.6342 106.283 41.2052C106.283 40.8152 105.711 40.6332 105.074 40.4122C104.229 40.1132 103.033 39.7102 103.033 38.5142C103.033 37.4222 104.034 36.7592 105.308 36.7592C106.075 36.7592 107.219 37.2012 107.531 38.3192L106.374 38.7352C106.166 38.0462 105.607 37.9422 105.308 37.9422C104.762 37.9422 104.411 38.1632 104.411 38.5142C104.411 38.9042 104.944 39.0602 105.607 39.2942C106.491 39.6062 107.661 40.0092 107.661 41.1922C107.661 42.3232 106.66 43.0642 105.217 43.0642C104.268 43.0642 103.228 42.4662 102.773 41.5172L103.852 40.8932ZM109.854 36.8112H111.232V43.0122H109.854V36.8112ZM109.763 34.4972C109.763 34.0422 110.088 33.7172 110.543 33.7172C110.998 33.7172 111.323 34.0422 111.323 34.4972C111.323 34.9522 110.998 35.2772 110.543 35.2772C110.088 35.2772 109.763 34.9522 109.763 34.4972ZM114.583 43.0252V38.0072H113.413V36.8112H114.583V34.6402H115.961V36.8112H117.43V38.0072H115.961V43.0252H114.583ZM122.045 41.8942C123.007 41.8942 123.657 41.1272 123.657 39.9442C123.657 38.7742 123.007 37.9942 122.045 37.9942C121.083 37.9942 120.433 38.7612 120.433 39.9442C120.433 41.1272 121.07 41.8942 122.045 41.8942ZM119.055 39.9442C119.055 38.1112 120.29 36.8112 122.045 36.8112C123.8 36.8112 125.035 38.1112 125.035 39.9442C125.035 41.7642 123.8 43.0772 122.045 43.0772C120.29 43.0772 119.055 41.7642 119.055 39.9442ZM127.022 43.0252V36.8242H128.4V37.7342C128.816 37.1492 129.57 36.7592 130.298 36.7982V38.0722C129.193 38.0202 128.4 38.9952 128.4 39.9442V43.0252H127.022ZM138.837 41.8812C139.825 41.8812 140.54 41.0102 140.54 39.9312C140.54 38.8782 139.825 37.9942 138.837 37.9942C137.862 37.9942 137.199 38.7612 137.199 39.9312C137.199 41.1142 137.862 41.8812 138.837 41.8812ZM135.821 39.9442C135.821 38.1242 137.043 36.8112 138.759 36.8112C139.396 36.8112 140.111 37.1362 140.54 37.7212V36.8112H141.918V42.5572C141.918 44.3252 140.722 45.7812 138.824 45.7812C137.784 45.7812 136.783 45.3522 136.172 44.3382L137.264 43.6102C137.719 44.2732 138.161 44.5592 138.824 44.5592C139.929 44.5592 140.54 43.6882 140.54 42.6742V42.1282C140.059 42.7392 139.344 43.0642 138.759 43.0642C137.043 43.0642 135.821 41.7642 135.821 39.9442ZM145.866 40.3602C145.866 41.3092 146.425 41.8942 147.244 41.8942C148.115 41.8942 148.713 41.3222 148.7 40.3732V36.8242H150.091V43.0252H148.7V42.3102C148.31 42.7912 147.673 43.0772 147.062 43.0772C145.567 43.0772 144.488 41.9982 144.488 40.4122V36.8242H145.866V40.3602ZM152.617 36.8112H153.995V43.0122H152.617V36.8112ZM152.526 34.4972C152.526 34.0422 152.851 33.7172 153.306 33.7172C153.761 33.7172 154.086 34.0422 154.086 34.4972C154.086 34.9522 153.761 35.2772 153.306 35.2772C152.851 35.2772 152.526 34.9522 152.526 34.4972ZM159.27 43.0772C157.554 43.0772 156.319 41.7772 156.319 39.9442C156.319 38.1112 157.554 36.8112 159.27 36.8112C159.777 36.8112 160.544 37.0322 161.077 37.7342V33.7302H162.455V43.0252H161.077V42.1542C160.531 42.8172 159.777 43.0772 159.27 43.0772ZM157.697 39.9572C157.697 41.1402 158.36 41.9202 159.361 41.9202C160.297 41.9202 161.077 41.0622 161.077 39.9572C161.077 38.8652 160.297 37.9942 159.361 37.9942C158.36 37.9942 157.697 38.7742 157.697 39.9572ZM167.512 43.0512C165.757 43.0512 164.522 41.7642 164.522 39.9442C164.522 38.1112 165.757 36.8242 167.512 36.8242C169.436 36.8242 170.047 38.3972 170.086 38.5012C170.463 39.3852 170.346 40.3732 170.346 40.4772H165.874C166.03 41.3092 166.732 41.8812 167.512 41.8812C168.539 41.8812 168.955 41.2832 169.059 41.1012L170.164 41.5952C169.865 42.2972 168.994 43.0512 167.512 43.0512ZM165.874 39.3852H169.046C168.916 38.6182 168.474 37.9942 167.512 37.9942C166.68 37.9942 166.03 38.5792 165.874 39.3852Z" fill="#4A4A4A"/>
</svg>
