<?xml version="1.0" encoding="UTF-8"?><svg id="_레이어_2" xmlns="http://www.w3.org/2000/svg" xmlns:xlink="http://www.w3.org/1999/xlink" viewBox="0 0 667.07 87.94"><defs><style>.cls-1{fill:url(#_무제_그라디언트_391-2);}.cls-2{fill:#f29544;}.cls-3{fill:#3d62ad;}.cls-4{fill:url(#_무제_그라디언트_391);}.cls-5{fill:#231815;}.cls-6{fill:url(#_무제_그라디언트_6);}</style><linearGradient id="_무제_그라디언트_6" x1="5.43" y1="52.89" x2="49.28" y2="12.79" gradientUnits="userSpaceOnUse"><stop offset="0" stop-color="#3d62ad"/><stop offset="1" stop-color="#354792"/></linearGradient><linearGradient id="_무제_그라디언트_391" x1="-5.2" y1="8.54" x2="29.54" y2="56.97" gradientUnits="userSpaceOnUse"><stop offset="0" stop-color="#b5b5b6"/><stop offset=".02" stop-color="#bababb"/><stop offset=".23" stop-color="#e6e6e7"/><stop offset=".33" stop-color="#f7f8f8"/><stop offset=".66" stop-color="#c9caca"/><stop offset="1" stop-color="#9fa0a0"/></linearGradient><linearGradient id="_무제_그라디언트_391-2" x1="5.32" y1="31.97" x2="40.05" y2="80.39" xlink:href="#_무제_그라디언트_391"/></defs><g id="_레이어_1-2"><g><g><g><path class="cls-5" d="m136.83,27.14c5.31,0,9.85,1.99,13.49,5.92l.21.22,6.59-6.19-.19-.22c-4.79-5.6-12.08-8.68-20.53-8.68-16.1,0-27.79,11.22-27.79,26.69s11.66,26.69,27.71,26.69c8.5,0,15.82-3.08,20.61-8.68l.19-.22-6.59-6.27-.21.23c-3.62,3.97-8.15,5.99-13.49,5.99-10.45,0-18.03-7.46-18.03-17.73s7.58-17.73,18.03-17.73Z"/><rect class="cls-5" x="165.56" y="18.92" width="10.13" height="51.91"/><polygon class="cls-5" points="188.94 70.83 199.07 70.83 199.07 51.18 223.85 51.18 223.85 42.52 199.07 42.52 199.07 27.51 227 27.51 227 18.92 188.94 18.92 188.94 70.83"/><path class="cls-5" d="m273.1,56.62c-3.62,3.97-8.16,5.99-13.49,5.99-10.44,0-18.03-7.46-18.03-17.73s7.58-17.73,18.03-17.73c5.31,0,9.85,1.99,13.49,5.92l.2.22,6.59-6.19-.19-.22c-4.79-5.6-12.08-8.68-20.53-8.68-16.1,0-27.79,11.22-27.79,26.69s11.66,26.69,27.72,26.69c8.5,0,15.82-3.08,20.61-8.68l.19-.22-6.59-6.27-.21.23Z"/></g><path class="cls-6" d="m79.66,18.28c-8.26-8.97-21.67-12-33.31-6.58-5.24,2.44-9.39,6.26-12.24,10.82-5.35-.83-11-.13-16.28,2.33C3.82,31.39-2.35,47.94,3.88,62.02c.08.18.16.35.24.53h0C1.47,56.9,0,50.61,0,43.97,0,19.68,19.68,0,43.97,0c14.69,0,27.71,7.21,35.69,18.28Z"/><path class="cls-2" d="m87.94,43.97c0,24.29-19.68,43.97-43.97,43.97-17.65,0-32.86-10.39-39.86-25.38h0c.08.17.17.34.25.51,6.78,13.83,23.42,19.74,37.43,13.2,4.96-2.31,8.94-5.88,11.73-10.15,5.61.98,11.57.33,17.12-2.26,11.02-5.14,17.26-16.38,16.56-27.82.47,2.58.72,5.24.72,7.95Z"/><path class="cls-3" d="m76.26,46.12c-7.81,3.64-17.09.27-20.73-7.54-4.16-8.91-12.37-14.66-21.42-16.05,2.84-4.57,7-8.38,12.24-10.82,11.64-5.42,25.05-2.39,33.31,6.58,1.6,2.22,3,4.6,4.17,7.1h-.02c3.64,7.82.27,17.1-7.54,20.74Z"/><path class="cls-4" d="m32.39,49.84c-.06-.13-.12-.27-.18-.4-3.62-7.75-12.84-11.11-20.59-7.49-7.58,3.54-10.96,12.43-7.73,20.07-6.23-14.08-.07-30.63,13.95-37.16,5.28-2.46,10.93-3.16,16.28-2.33-4.96,7.95-5.94,18.18-1.72,27.32Z"/><path class="cls-1" d="m53.54,66.11c-2.79,4.27-6.77,7.84-11.73,10.15-14.02,6.54-30.65.63-37.43-13.2-.08-.17-.17-.34-.25-.52-.08-.18-.16-.35-.24-.53-3.23-7.64.15-16.53,7.73-20.07,7.75-3.62,16.98-.26,20.59,7.49.06.13.12.27.18.4.02.03.03.05.04.08,4.12,8.85,12.18,14.6,21.11,16.18Z"/></g><g><path class="cls-5" d="m297.08,32.79c0-4.55,3.48-7.88,8.16-7.88,2.38,0,4.44.81,5.85,2.4l-1.43,1.39c-1.19-1.25-2.64-1.83-4.33-1.83-3.48,0-6.05,2.51-6.05,5.92s2.57,5.92,6.05,5.92c1.69,0,3.15-.59,4.33-1.85l1.43,1.39c-1.41,1.58-3.48,2.42-5.88,2.42-4.67,0-8.14-3.32-8.14-7.88Z"/><path class="cls-5" d="m311.71,34.66c0-3.48,2.57-5.94,6.07-5.94s6.05,2.46,6.05,5.94-2.55,5.96-6.05,5.96-6.07-2.49-6.07-5.96Zm9.99,0c0-2.49-1.67-4.09-3.92-4.09s-3.94,1.61-3.94,4.09,1.69,4.12,3.94,4.12,3.92-1.63,3.92-4.12Z"/><path class="cls-5" d="m336.97,28.83v11.66h-2v-1.76c-.86,1.21-2.31,1.89-3.96,1.89-3.02,0-5.02-1.65-5.02-5.08v-6.71h2.11v6.47c0,2.29,1.14,3.43,3.15,3.43,2.2,0,3.61-1.36,3.61-3.87v-6.03h2.11Z"/><path class="cls-5" d="m351.4,33.78v6.71h-2.11v-6.47c0-2.29-1.14-3.41-3.15-3.41-2.24,0-3.7,1.34-3.7,3.87v6.01h-2.11v-11.66h2.02v1.76c.86-1.19,2.36-1.87,4.2-1.87,2.84,0,4.84,1.63,4.84,5.06Z"/><path class="cls-5" d="m353.64,34.66c0-3.48,2.57-5.94,6.16-5.94,2.09,0,3.83.86,4.75,2.49l-1.61,1.04c-.75-1.14-1.89-1.67-3.17-1.67-2.29,0-4,1.61-4,4.09s1.72,4.12,4,4.12c1.28,0,2.42-.53,3.17-1.67l1.61,1.01c-.92,1.63-2.66,2.51-4.75,2.51-3.59,0-6.16-2.49-6.16-5.96Z"/><path class="cls-5" d="m366.25,25.23c0-.77.62-1.39,1.43-1.39s1.43.59,1.43,1.34c0,.79-.59,1.41-1.43,1.41s-1.43-.59-1.43-1.36Zm.37,3.61h2.11v11.66h-2.11v-11.66Z"/><path class="cls-5" d="m372.1,24.17h2.11v16.33h-2.11v-16.33Z"/><path class="cls-5" d="m381.76,34.66c0-3.48,2.57-5.94,6.07-5.94s6.05,2.46,6.05,5.94-2.55,5.96-6.05,5.96-6.07-2.49-6.07-5.96Zm9.99,0c0-2.49-1.67-4.09-3.92-4.09s-3.94,1.61-3.94,4.09,1.69,4.12,3.94,4.12,3.92-1.63,3.92-4.12Z"/><path class="cls-5" d="m407.21,33.78v6.71h-2.11v-6.47c0-2.29-1.14-3.41-3.15-3.41-2.24,0-3.7,1.34-3.7,3.87v6.01h-2.11v-11.66h2.02v1.76c.86-1.19,2.35-1.87,4.2-1.87,2.84,0,4.84,1.63,4.84,5.06Z"/><path class="cls-5" d="m298.34,51.09h2.2v15.4h-2.2v-15.4Z"/><path class="cls-5" d="m315.26,59.78v6.71h-2.11v-6.47c0-2.29-1.14-3.41-3.15-3.41-2.24,0-3.7,1.34-3.7,3.87v6.01h-2.11v-11.66h2.02v1.76c.86-1.19,2.35-1.87,4.2-1.87,2.84,0,4.84,1.63,4.84,5.06Z"/><path class="cls-5" d="m325.07,65.81c-.64.55-1.61.81-2.55.81-2.36,0-3.7-1.3-3.7-3.65v-6.4h-1.98v-1.74h1.98v-2.55h2.11v2.55h3.34v1.74h-3.34v6.32c0,1.25.66,1.96,1.83,1.96.62,0,1.21-.2,1.65-.55l.66,1.52Z"/><path class="cls-5" d="m337.06,61.37h-9.46c.26,2.05,1.91,3.41,4.22,3.41,1.36,0,2.51-.46,3.37-1.41l1.17,1.36c-1.06,1.23-2.66,1.89-4.6,1.89-3.76,0-6.27-2.49-6.27-5.96s2.49-5.94,5.85-5.94,5.76,2.42,5.76,6.01c0,.18-.02.44-.04.64Zm-9.46-1.52h7.48c-.22-1.96-1.7-3.34-3.74-3.34s-3.52,1.36-3.74,3.34Z"/><path class="cls-5" d="m345.64,54.72v2.05c-.18-.02-.33-.02-.48-.02-2.27,0-3.67,1.38-3.67,3.94v5.81h-2.11v-11.66h2.02v1.96c.75-1.36,2.2-2.07,4.25-2.07Z"/><path class="cls-5" d="m358.64,59.78v6.71h-2.11v-6.47c0-2.29-1.14-3.41-3.15-3.41-2.24,0-3.7,1.34-3.7,3.87v6.01h-2.11v-11.66h2.02v1.76c.86-1.19,2.35-1.87,4.2-1.87,2.84,0,4.84,1.63,4.84,5.06Z"/><path class="cls-5" d="m371.13,59.45v7.04h-2v-1.54c-.7,1.05-2,1.67-3.83,1.67-2.64,0-4.31-1.41-4.31-3.43,0-1.87,1.21-3.41,4.69-3.41h3.34v-.42c0-1.78-1.03-2.82-3.12-2.82-1.39,0-2.79.48-3.7,1.25l-.88-1.58c1.21-.97,2.95-1.5,4.82-1.5,3.19,0,5,1.54,5,4.73Zm-2.11,3.48v-1.63h-3.26c-2.09,0-2.69.81-2.69,1.8,0,1.17.97,1.89,2.57,1.89s2.84-.73,3.37-2.07Z"/><path class="cls-5" d="m380.95,65.81c-.64.55-1.61.81-2.55.81-2.35,0-3.7-1.3-3.7-3.65v-6.4h-1.98v-1.74h1.98v-2.55h2.11v2.55h3.34v1.74h-3.34v6.32c0,1.25.66,1.96,1.83,1.96.62,0,1.21-.2,1.65-.55l.66,1.52Z"/><path class="cls-5" d="m382.46,51.23c0-.77.62-1.39,1.43-1.39s1.43.59,1.43,1.34c0,.79-.59,1.41-1.43,1.41s-1.43-.59-1.43-1.36Zm.37,3.61h2.11v11.66h-2.11v-11.66Z"/><path class="cls-5" d="m387.24,60.66c0-3.48,2.57-5.94,6.07-5.94s6.05,2.46,6.05,5.94-2.55,5.96-6.05,5.96-6.07-2.49-6.07-5.96Zm9.99,0c0-2.49-1.67-4.09-3.92-4.09s-3.94,1.61-3.94,4.09,1.69,4.12,3.94,4.12,3.92-1.63,3.92-4.12Z"/><path class="cls-5" d="m412.69,59.78v6.71h-2.11v-6.47c0-2.29-1.14-3.41-3.15-3.41-2.24,0-3.7,1.34-3.7,3.87v6.01h-2.11v-11.66h2.02v1.76c.86-1.19,2.35-1.87,4.2-1.87,2.84,0,4.84,1.63,4.84,5.06Z"/><path class="cls-5" d="m425.19,59.45v7.04h-2v-1.54c-.7,1.05-2,1.67-3.83,1.67-2.64,0-4.31-1.41-4.31-3.43,0-1.87,1.21-3.41,4.69-3.41h3.34v-.42c0-1.78-1.03-2.82-3.12-2.82-1.39,0-2.79.48-3.7,1.25l-.88-1.58c1.21-.97,2.95-1.5,4.82-1.5,3.19,0,5,1.54,5,4.73Zm-2.11,3.48v-1.63h-3.26c-2.09,0-2.68.81-2.68,1.8,0,1.17.97,1.89,2.57,1.89s2.84-.73,3.37-2.07Z"/><path class="cls-5" d="m428.44,50.17h2.11v16.33h-2.11v-16.33Z"/><path class="cls-5" d="m441.69,53.01v5.37h7.72v1.89h-7.72v6.23h-2.2v-15.4h10.87v1.91h-8.67Z"/><path class="cls-5" d="m451.89,51.23c0-.77.62-1.39,1.43-1.39s1.43.59,1.43,1.34c0,.79-.59,1.41-1.43,1.41s-1.43-.59-1.43-1.36Zm.37,3.61h2.11v11.66h-2.11v-11.66Z"/><path class="cls-5" d="m468.81,59.78v6.71h-2.11v-6.47c0-2.29-1.14-3.41-3.15-3.41-2.24,0-3.7,1.34-3.7,3.87v6.01h-2.11v-11.66h2.02v1.76c.86-1.19,2.36-1.87,4.2-1.87,2.84,0,4.84,1.63,4.84,5.06Z"/><path class="cls-5" d="m481.31,59.45v7.04h-2v-1.54c-.7,1.05-2,1.67-3.83,1.67-2.64,0-4.31-1.41-4.31-3.43,0-1.87,1.21-3.41,4.69-3.41h3.35v-.42c0-1.78-1.04-2.82-3.12-2.82-1.39,0-2.79.48-3.7,1.25l-.88-1.58c1.21-.97,2.95-1.5,4.82-1.5,3.19,0,4.99,1.54,4.99,4.73Zm-2.11,3.48v-1.63h-3.26c-2.09,0-2.68.81-2.68,1.8,0,1.17.97,1.89,2.57,1.89s2.84-.73,3.37-2.07Z"/><path class="cls-5" d="m495.63,59.78v6.71h-2.11v-6.47c0-2.29-1.14-3.41-3.15-3.41-2.24,0-3.7,1.34-3.7,3.87v6.01h-2.11v-11.66h2.02v1.76c.86-1.19,2.35-1.87,4.2-1.87,2.84,0,4.84,1.63,4.84,5.06Z"/><path class="cls-5" d="m497.87,60.66c0-3.48,2.57-5.94,6.16-5.94,2.09,0,3.83.86,4.75,2.49l-1.61,1.04c-.75-1.14-1.89-1.67-3.17-1.67-2.29,0-4,1.61-4,4.09s1.72,4.12,4,4.12c1.28,0,2.42-.53,3.17-1.67l1.61,1.01c-.92,1.63-2.66,2.51-4.75,2.51-3.59,0-6.16-2.49-6.16-5.96Z"/><path class="cls-5" d="m510.48,51.23c0-.77.62-1.39,1.43-1.39s1.43.59,1.43,1.34c0,.79-.59,1.41-1.43,1.41s-1.43-.59-1.43-1.36Zm.37,3.61h2.11v11.66h-2.11v-11.66Z"/><path class="cls-5" d="m525.57,59.45v7.04h-2v-1.54c-.7,1.05-2,1.67-3.83,1.67-2.64,0-4.31-1.41-4.31-3.43,0-1.87,1.21-3.41,4.69-3.41h3.35v-.42c0-1.78-1.04-2.82-3.12-2.82-1.39,0-2.79.48-3.7,1.25l-.88-1.58c1.21-.97,2.95-1.5,4.82-1.5,3.19,0,4.99,1.54,4.99,4.73Zm-2.11,3.48v-1.63h-3.26c-2.09,0-2.68.81-2.68,1.8,0,1.17.97,1.89,2.57,1.89s2.84-.73,3.37-2.07Z"/><path class="cls-5" d="m528.83,50.17h2.11v16.33h-2.11v-16.33Z"/><path class="cls-5" d="m538.62,58.79c0-4.55,3.48-7.88,8.16-7.88,2.38,0,4.45.81,5.85,2.4l-1.43,1.39c-1.19-1.25-2.64-1.83-4.34-1.83-3.48,0-6.05,2.51-6.05,5.92s2.58,5.92,6.05,5.92c1.7,0,3.15-.59,4.34-1.85l1.43,1.39c-1.41,1.58-3.48,2.42-5.88,2.42-4.66,0-8.14-3.32-8.14-7.88Z"/><path class="cls-5" d="m553.25,60.66c0-3.48,2.57-5.94,6.07-5.94s6.05,2.46,6.05,5.94-2.55,5.96-6.05,5.96-6.07-2.49-6.07-5.96Zm9.99,0c0-2.49-1.67-4.09-3.92-4.09s-3.94,1.61-3.94,4.09,1.69,4.12,3.94,4.12,3.92-1.63,3.92-4.12Z"/><path class="cls-5" d="m566.56,60.66c0-3.48,2.57-5.94,6.07-5.94s6.05,2.46,6.05,5.94-2.55,5.96-6.05,5.96-6.07-2.49-6.07-5.96Zm9.99,0c0-2.49-1.67-4.09-3.92-4.09s-3.94,1.61-3.94,4.09,1.69,4.12,3.94,4.12,3.92-1.63,3.92-4.12Z"/><path class="cls-5" d="m593.02,60.66c0,3.59-2.49,5.96-5.9,5.96-1.65,0-3.1-.64-4.07-1.89v6.03h-2.11v-15.93h2.02v1.85c.95-1.3,2.44-1.96,4.16-1.96,3.41,0,5.9,2.38,5.9,5.94Zm-2.13,0c0-2.46-1.69-4.09-3.94-4.09s-3.92,1.63-3.92,4.09,1.69,4.12,3.92,4.12,3.94-1.63,3.94-4.12Z"/><path class="cls-5" d="m605.78,61.37h-9.46c.26,2.05,1.91,3.41,4.22,3.41,1.36,0,2.51-.46,3.37-1.41l1.17,1.36c-1.06,1.23-2.66,1.89-4.6,1.89-3.76,0-6.27-2.49-6.27-5.96s2.49-5.94,5.85-5.94,5.76,2.42,5.76,6.01c0,.18-.02.44-.04.64Zm-9.46-1.52h7.48c-.22-1.96-1.69-3.34-3.74-3.34s-3.52,1.36-3.74,3.34Z"/><path class="cls-5" d="m614.36,54.72v2.05c-.18-.02-.33-.02-.48-.02-2.27,0-3.67,1.38-3.67,3.94v5.81h-2.11v-11.66h2.02v1.96c.75-1.36,2.2-2.07,4.25-2.07Z"/><path class="cls-5" d="m625.52,59.45v7.04h-2v-1.54c-.7,1.05-2,1.67-3.83,1.67-2.64,0-4.31-1.41-4.31-3.43,0-1.87,1.21-3.41,4.69-3.41h3.34v-.42c0-1.78-1.03-2.82-3.12-2.82-1.39,0-2.79.48-3.7,1.25l-.88-1.58c1.21-.97,2.95-1.5,4.82-1.5,3.19,0,4.99,1.54,4.99,4.73Zm-2.11,3.48v-1.63h-3.26c-2.09,0-2.68.81-2.68,1.8,0,1.17.97,1.89,2.57,1.89s2.84-.73,3.37-2.07Z"/><path class="cls-5" d="m635.33,65.81c-.64.55-1.61.81-2.55.81-2.35,0-3.7-1.3-3.7-3.65v-6.4h-1.98v-1.74h1.98v-2.55h2.11v2.55h3.34v1.74h-3.34v6.32c0,1.25.66,1.96,1.83,1.96.62,0,1.21-.2,1.65-.55l.66,1.52Z"/><path class="cls-5" d="m636.84,51.23c0-.77.62-1.39,1.43-1.39s1.43.59,1.43,1.34c0,.79-.59,1.41-1.43,1.41s-1.43-.59-1.43-1.36Zm.37,3.61h2.11v11.66h-2.11v-11.66Z"/><path class="cls-5" d="m641.62,60.66c0-3.48,2.57-5.94,6.07-5.94s6.05,2.46,6.05,5.94-2.55,5.96-6.05,5.96-6.07-2.49-6.07-5.96Zm9.99,0c0-2.49-1.67-4.09-3.92-4.09s-3.94,1.61-3.94,4.09,1.69,4.12,3.94,4.12,3.92-1.63,3.92-4.12Z"/><path class="cls-5" d="m667.07,59.78v6.71h-2.11v-6.47c0-2.29-1.14-3.41-3.15-3.41-2.25,0-3.7,1.34-3.7,3.87v6.01h-2.11v-11.66h2.02v1.76c.86-1.19,2.35-1.87,4.2-1.87,2.84,0,4.84,1.63,4.84,5.06Z"/></g></g></g></svg>