<svg width="146" height="32" viewBox="0 0 146 32" fill="none" xmlns="http://www.w3.org/2000/svg">
<g clip-path="url(#clip0_2625_243)">
<path d="M6.35804e-05 0L0 31.9717H17.4391C20.6496 31.9717 23.2522 29.3691 23.2522 26.1586C23.2522 22.9482 20.6496 20.3456 17.4391 20.3456H12.2074C10.6022 20.3456 9.3009 19.0443 9.3009 17.4391C9.3009 15.8339 10.6022 14.5326 12.2074 14.5326H20.3456V11.6261H12.2074C8.99696 11.6261 6.39437 14.2286 6.39437 17.4391C6.39437 20.4533 8.84517 23.2376 12.1327 23.2376H17.4391C19.0443 23.2376 20.3456 24.5534 20.3456 26.1586C20.3456 27.7639 19.0443 29.0651 17.4391 29.0651H2.90656V2.90653H50.864V14.6804C49.0176 12.7959 46.4444 11.6261 43.5977 11.6261C37.9794 11.6261 33.4249 16.1806 33.4249 21.7989C33.4249 24.6456 34.5947 27.2187 36.4793 29.0651H30.5184C28.9132 29.0651 27.6119 27.7639 27.6119 26.1586V14.5326H33.4249V11.6261H27.6119V5.81306H24.7054V26.1586C24.7054 29.3691 27.308 31.9717 30.5184 31.9717H43.5977C49.216 31.9717 53.7705 27.4172 53.7705 21.7989V0H6.35804e-05ZM43.5977 29.0651C39.5847 29.0651 36.3314 25.8119 36.3314 21.7989C36.3314 17.7858 39.5847 14.5326 43.5977 14.5326C47.6108 14.5326 50.864 17.7858 50.864 21.7989C50.864 25.8119 47.6108 29.0651 43.5977 29.0651Z" fill="#FFA400"/>
<g style="mix-blend-mode:multiply" opacity="0.7">
<path style="mix-blend-mode:multiply" opacity="0.5" d="M33.4258 21.7998H36.3323C36.3323 25.8128 39.5855 29.0661 43.5986 29.0661H36.4801C34.5956 27.2196 33.4258 24.6465 33.4258 21.7998Z" fill="url(#paint0_linear_2625_243)"/>
</g>
<path style="mix-blend-mode:multiply" opacity="0.7" d="M50.8633 8.71582H53.7698V21.7951C53.7698 19.0236 52.6609 16.5114 50.8633 14.6767V8.71582Z" fill="url(#paint1_linear_2625_243)"/>
<path d="M59.3112 7.19684C59.9636 7.42517 60.6529 7.61543 61.342 7.61543C61.9944 7.61543 62.8436 7.37443 62.8436 6.54957C62.8436 4.86181 58.9913 5.36953 58.9913 2.4253C58.9913 0.724834 60.4805 0.0268555 61.9329 0.0268555C62.7083 0.0268555 63.4591 0.217117 64.1853 0.471131L63.7176 1.76536C63.1513 1.57507 62.5852 1.39747 61.9821 1.39747C61.3791 1.39747 60.6529 1.61314 60.6529 2.36186C60.6529 3.80861 64.5176 3.41505 64.5176 6.39735C64.5176 8.17389 62.8682 8.98608 61.342 8.98608C60.5174 8.98608 59.7051 8.82116 58.9297 8.52939L59.3112 7.19684Z" fill="#53575A"/>
<path d="M66.5723 8.84666V0.166504H71.4832V1.53715H68.1108V3.66919H70.9293V4.98879H68.1108V7.47604H71.594V8.84666H66.5723Z" fill="#53575A"/>
<path d="M72.7539 4.51929C72.7539 1.96863 74.1325 0.0268555 76.7294 0.0268555C79.3387 0.0268555 80.7173 1.96863 80.7173 4.51929C80.7173 7.03192 79.2895 8.98608 76.7294 8.98608C74.1694 8.98608 72.7539 7.04459 72.7539 4.51929ZM79.0679 4.51929C79.0679 2.97105 78.4403 1.39747 76.7294 1.39747C75.0186 1.39747 74.4033 2.97105 74.4033 4.51929C74.4033 6.04213 75.0432 7.61543 76.7294 7.61543C78.4156 7.61543 79.0679 6.04213 79.0679 4.51929Z" fill="#53575A"/>
<path d="M87.4794 0.166504H89.018V5.88976C89.018 8.0218 87.5287 8.98621 85.6086 8.98621C83.7008 8.98621 82.1992 8.00913 82.1992 5.88976V0.166504H83.7377V5.77558C83.7377 7.03204 84.427 7.61556 85.6086 7.61556C86.7902 7.61556 87.4794 7.03204 87.4794 5.77558V0.166504Z" fill="#53575A"/>
<path d="M90.9375 8.84666V0.166504H92.476V7.47604H95.9594V8.84666H90.9375Z" fill="#53575A"/>
<path d="M61.3803 20.3289V13.05H58.916V11.6851H65.5366V13.05H62.9128V20.3289H61.3803Z" fill="#53575A"/>
<path d="M66.1113 16.0196C66.1113 13.4796 67.4846 11.5459 70.0714 11.5459C72.6706 11.5459 74.0438 13.4796 74.0438 16.0196C74.0438 18.5217 72.6216 20.4677 70.0714 20.4677C67.5213 20.4677 66.1113 18.5343 66.1113 16.0196ZM72.4008 16.0196C72.4008 14.4778 71.7756 12.9108 70.0714 12.9108C68.3673 12.9108 67.7543 14.4778 67.7543 16.0196C67.7543 17.5361 68.3918 19.1028 70.0714 19.1028C71.7511 19.1028 72.4008 17.5361 72.4008 16.0196Z" fill="#53575A"/>
<path d="M80.7246 11.6851H82.2571V17.3844C82.2571 19.5075 80.7736 20.4679 78.861 20.4679C76.9606 20.4679 75.4648 19.4949 75.4648 17.3844V11.6851H76.9974V17.2707C76.9974 18.5219 77.684 19.103 78.861 19.103C80.038 19.103 80.7246 18.5219 80.7246 17.2707V11.6851Z" fill="#53575A"/>
<path d="M88.5077 20.3287L86.8035 17.4347C86.6809 17.2326 86.5584 17.0305 86.3866 16.8662C86.3008 16.8662 86.2151 16.8789 86.1293 16.8789C85.9453 16.8789 85.7737 16.8536 85.5775 16.841V20.3287H84.0449V11.8112C84.7805 11.6469 85.4794 11.5459 86.2273 11.5459C87.8702 11.5459 89.5253 12.0894 89.5253 14.187C89.5253 15.3245 88.7161 16.3354 87.7231 16.5122V16.5375C87.9927 16.5502 88.287 17.0178 88.4095 17.22L90.322 20.3287H88.5077ZM85.5775 15.5771C85.8227 15.6151 86.0311 15.6277 86.2641 15.6277C87.1713 15.6277 87.9192 15.135 87.9192 14.1491C87.9192 13.1887 87.1958 12.8982 86.3008 12.8982C86.0556 12.8982 85.8227 12.9234 85.5775 12.974V15.5771Z" fill="#53575A"/>
<path d="M91.2891 20.3289V11.6851H92.8216V20.3289H91.2891Z" fill="#53575A"/>
<path d="M94.6849 18.6859C95.3347 18.9133 96.0214 19.1028 96.7077 19.1028C97.3575 19.1028 98.2035 18.8628 98.2035 18.0414C98.2035 16.3607 94.3662 16.8662 94.3662 13.9343C94.3662 12.241 95.8495 11.5459 97.2962 11.5459C98.0687 11.5459 98.8165 11.7354 99.5399 11.9883L99.0742 13.2771C98.5101 13.0876 97.9461 12.9108 97.3453 12.9108C96.7447 12.9108 96.0214 13.1256 96.0214 13.8712C96.0214 15.3119 99.8711 14.92 99.8711 17.8898C99.8711 19.6589 98.228 20.4677 96.7077 20.4677C95.8862 20.4677 95.0771 20.3035 94.3047 20.0129L94.6849 18.6859Z" fill="#53575A"/>
<path d="M108.623 20.3285V13.1759H108.598C108.574 13.2895 108.549 13.4032 108.5 13.5046L106.11 18.4836C105.509 18.4836 105.215 18.2812 104.822 17.4471L102.946 13.4919C102.897 13.4032 102.873 13.2895 102.848 13.1885H102.824V20.3285H101.328V11.6973H103.596L105.742 16.2973H105.766C105.803 16.133 105.877 15.9562 105.95 15.8043L107.863 11.6973H110.119V20.3285H108.623Z" fill="#53575A"/>
<path d="M58.8945 27.5379C58.8945 24.9902 60.2737 23.0508 62.8716 23.0508C65.4817 23.0508 66.8606 24.9902 66.8606 27.5379C66.8606 30.0477 65.4325 31.9996 62.8716 31.9996C60.3105 31.9996 58.8945 30.0603 58.8945 27.5379ZM65.211 27.5379C65.211 25.9915 64.583 24.4198 62.8716 24.4198C61.1599 24.4198 60.5444 25.9915 60.5444 27.5379C60.5444 29.059 61.1846 30.6307 62.8716 30.6307C64.5584 30.6307 65.211 29.059 65.211 27.5379Z" fill="#53575A"/>
<path d="M72.6811 31.8602L70.9697 28.9575C70.8465 28.7547 70.7232 28.5519 70.551 28.3872C70.4646 28.3872 70.3785 28.3998 70.2924 28.3998C70.1077 28.3998 69.9352 28.3745 69.7384 28.3618V31.8602H68.1992V23.317C68.9379 23.1523 69.6398 23.0508 70.391 23.0508C72.0406 23.0508 73.703 23.5959 73.703 25.6999C73.703 26.8408 72.8904 27.8548 71.8931 28.0323V28.0576C72.1638 28.0703 72.4593 28.5392 72.5825 28.7421L74.5032 31.8602H72.6811ZM69.7384 27.0942C69.9845 27.1323 70.1938 27.145 70.4278 27.145C71.339 27.145 72.0899 26.6507 72.0899 25.662C72.0899 24.6986 71.3637 24.4071 70.4646 24.4071C70.2185 24.4071 69.9845 24.4325 69.7384 24.4831V27.0942Z" fill="#53575A"/>
<path d="M80.5868 27.3097H82.1138V31.3152C81.2272 31.7589 80.2914 31.9996 79.3065 31.9996C76.6839 31.9996 74.7754 30.3012 74.7754 27.5379C74.7754 24.648 76.5239 23.0508 79.2819 23.0508C80.156 23.0508 81.0179 23.2917 81.8305 23.634L81.3133 24.9522C80.6239 24.648 79.8974 24.4325 79.1465 24.4325C77.4226 24.4325 76.4253 25.6367 76.4253 27.3604C76.4253 29.2111 77.3611 30.6054 79.2694 30.6054C79.688 30.6054 80.2299 30.5546 80.6239 30.3898C80.5993 30.2505 80.5868 30.1111 80.5868 29.9716V27.3097Z" fill="#53575A"/>
<path d="M89.5357 31.8604L88.6984 29.6549H85.4479L84.6109 31.8477L82.9609 31.8604L86.4452 23.1904H87.9104L91.2596 31.8604H89.5357ZM87.0978 25.3072L87.0856 25.3579L85.9897 28.286H88.1937L87.0978 25.3072Z" fill="#53575A"/>
<path d="M98.0042 23.1904H99.5433V31.759C99.2601 31.873 98.9401 31.9491 98.6322 31.9491C97.8563 31.9491 97.2777 31.5182 96.8961 30.8463L93.7688 25.2818C93.707 25.1805 93.658 25.079 93.6088 24.965H93.5841V31.8604H92.0449V23.1904H94.3474L97.7949 29.6168C97.8934 29.8069 97.9181 29.883 97.9796 29.9971H98.0042V23.1904Z" fill="#53575A"/>
<path d="M101.293 31.8604V23.1904H102.832V31.8604H101.293Z" fill="#53575A"/>
<path d="M104.016 31.8604C103.942 31.6829 103.893 31.4801 103.893 31.29C103.893 30.9351 104.053 30.6055 104.262 30.3267L108.485 24.5593H104.114V23.1904H110.48V24.3185L105.986 30.4915H110.467V31.8604H104.016Z" fill="#53575A"/>
<path d="M117.471 31.8604L116.634 29.6549H113.383L112.546 31.8477L110.896 31.8604L114.381 23.1904H115.846L119.195 31.8604H117.471ZM115.033 25.3072L115.021 25.3579L113.925 28.286H116.129L115.033 25.3072Z" fill="#53575A"/>
<path d="M120.678 31.8604V24.5593H118.203V23.1904H124.852V24.5593H122.217V31.8604H120.678Z" fill="#53575A"/>
<path d="M125.941 31.8604V23.1904H127.481V31.8604H125.941Z" fill="#53575A"/>
<path d="M128.656 27.5379C128.656 24.9902 130.035 23.0508 132.633 23.0508C135.243 23.0508 136.622 24.9902 136.622 27.5379C136.622 30.0477 135.194 31.9996 132.633 31.9996C130.072 31.9996 128.656 30.0603 128.656 27.5379ZM134.973 27.5379C134.973 25.9915 134.345 24.4198 132.633 24.4198C130.922 24.4198 130.306 25.9915 130.306 27.5379C130.306 29.059 130.946 30.6307 132.633 30.6307C134.32 30.6307 134.973 29.059 134.973 27.5379Z" fill="#53575A"/>
<path d="M143.979 23.1904H145.518V31.759C145.235 31.873 144.915 31.9491 144.607 31.9491C143.831 31.9491 143.252 31.5182 142.871 30.8463L139.743 25.2818C139.682 25.1805 139.633 25.079 139.583 24.965H139.559V31.8604H138.02V23.1904H140.322L143.769 29.6168C143.868 29.8069 143.893 29.883 143.954 29.9971H143.979V23.1904Z" fill="#53575A"/>
</g>
<defs>
<linearGradient id="paint0_linear_2625_243" x1="38.5122" y1="29.2152" x2="38.5122" y2="21.6256" gradientUnits="userSpaceOnUse">
<stop stop-color="#683C13"/>
<stop offset="0.00261801" stop-color="#683C13" stop-opacity="0.99189"/>
<stop offset="0.113897" stop-color="#683C13" stop-opacity="0.686864"/>
<stop offset="0.233738" stop-color="#683C13" stop-opacity="0.437364"/>
<stop offset="0.366258" stop-color="#683C13" stop-opacity="0.242484"/>
<stop offset="0.516094" stop-color="#683C13" stop-opacity="0.1049"/>
<stop offset="0.697824" stop-color="#683C13" stop-opacity="0.0242963"/>
<stop offset="1" stop-color="#683C13" stop-opacity="0"/>
</linearGradient>
<linearGradient id="paint1_linear_2625_243" x1="50.4074" y1="17.5307" x2="56.3632" y2="10.4328" gradientUnits="userSpaceOnUse">
<stop stop-color="#683C13"/>
<stop offset="0.00261801" stop-color="#683C13" stop-opacity="0.99189"/>
<stop offset="0.113897" stop-color="#683C13" stop-opacity="0.686864"/>
<stop offset="0.233738" stop-color="#683C13" stop-opacity="0.437364"/>
<stop offset="0.366258" stop-color="#683C13" stop-opacity="0.242484"/>
<stop offset="0.516094" stop-color="#683C13" stop-opacity="0.1049"/>
<stop offset="0.697824" stop-color="#683C13" stop-opacity="0.0242963"/>
<stop offset="1" stop-color="#683C13" stop-opacity="0"/>
</linearGradient>
<clipPath id="clip0_2625_243">
<rect width="145.565" height="32" fill="white"/>
</clipPath>
</defs>
</svg>
