<svg xmlns="http://www.w3.org/2000/svg" width="87.849" height="122.814" viewBox="0 0 87.849 122.814">
  <g id="빈폴심볼" transform="translate(-403.076 -201.544)">
    <path id="패스_72" d="M529.085,400.7a11.293,11.293,0,1,1,11.237-11.356A11.277,11.277,0,0,1,529.085,400.7m0-22.968a11.675,11.675,0,1,0,11.62,11.611,11.685,11.685,0,0,0-11.62-11.611" transform="translate(-49.78 -76.724)" fill="#fff" fill-rule="evenodd"/>
    <path id="패스_73" d="M538.319,397.322a1.144,1.144,0,0,1-1.15,1.148,1.26,1.26,0,0,1-1.277-1.148,1.373,1.373,0,0,1,1.277-1.276,1.259,1.259,0,0,1,1.15,1.276" transform="translate(-57.864 -84.704)" fill="#fff" fill-rule="evenodd"/>
    <path id="패스_74" d="M437.292,365.7a33.813,33.813,0,1,1,33.837-33.813A33.8,33.8,0,0,1,437.292,365.7m0-68.009a34.26,34.26,0,1,0,34.348,34.2,34.21,34.21,0,0,0-34.348-34.2" transform="translate(0.004 -41.851)" fill="#fff" fill-rule="evenodd"/>
    <path id="패스_75" d="M437.292,365.7a33.813,33.813,0,1,1,33.837-33.813A33.8,33.8,0,0,1,437.292,365.7m0-68.009a34.26,34.26,0,1,0,34.348,34.2,34.21,34.21,0,0,0-34.348-34.2" transform="translate(0.004 -41.851)" fill="#fff" fill-rule="evenodd"/>
    <path id="패스_76" d="M437.982,364.473a31.836,31.836,0,1,1,31.922-31.9,31.814,31.814,0,0,1-31.922,31.9m0-65.2a33.3,33.3,0,1,0,33.327,33.3,33.338,33.338,0,0,0-33.327-33.3" transform="translate(-0.686 -42.54)" fill="#fff"/>
    <path id="패스_77" d="M437.292,365.7a33.813,33.813,0,1,1,33.837-33.813A33.8,33.8,0,0,1,437.292,365.7m0-68.009a34.26,34.26,0,1,0,34.348,34.2,34.21,34.21,0,0,0-34.348-34.2" transform="translate(0.004 -41.851)" fill="#fff"/>
    <path id="패스_78" d="M486.566,303.006v-.128l8.427-5.869v.128Z" transform="translate(-36.373 -41.554)" fill="#fff"/>
    <path id="패스_80" d="M463.712,369.863v-.128s3.7-.638,4.342-1.276v.128a19.579,19.579,0,0,1-4.342,1.276" transform="translate(-26.416 -72.684)" fill="#fff"/>
    <path id="패스_81" d="M450.264,302.821h-.128a25.538,25.538,0,0,1,8.3-.893v.128a25.639,25.639,0,0,0-8.172.765" transform="translate(-20.501 -43.666)" fill="#fff"/>
    <path id="패스_84" d="M506.215,359.9a9.643,9.643,0,0,1-9.577-9.57,9.492,9.492,0,0,1,8.3-9.315v9.315h2.426v-9.315a9.385,9.385,0,0,1,8.3,9.315,9.534,9.534,0,0,1-9.449,9.57m1.149-20.161v-2.169a75.185,75.185,0,0,0-1.532-13.653,49.266,49.266,0,0,0-11.875-22.457,40.778,40.778,0,0,0-29.113-13.27v2.424a39.8,39.8,0,0,1,27.453,12.5,47.907,47.907,0,0,1,11.237,21.309,78.284,78.284,0,0,1,1.4,13.143v2.169a10.552,10.552,0,0,0-9.449,10.591,10.726,10.726,0,1,0,11.875-10.591" transform="translate(-26.909 -37.712)" fill="#fff"/>
    <path id="패스_85" d="M475.483,210.856a.768.768,0,0,0,.511.128,33.684,33.684,0,0,0,3.576.255c.766,0,1.277-.128,1.532.766,0,.383.511.383.766,0,.128-.256.255-.383.255-.638a.872.872,0,0,1,.639-.383.848.848,0,0,1,.638.51,1.62,1.62,0,0,1,.128.766c0,.255-.128.383,0,.51a8.14,8.14,0,0,0,.894,1.532c.256.383.511.383.639,0,.511-1.021.893-1.914,1.4-3.063a2.494,2.494,0,0,0,.894-.128.574.574,0,0,0,.383-.383c0-.128-.128-.383-.255-.383-.383-.128-.894-.255-1.277-.383-.128-.128-.383-.255-.383-.511,0-.765.383-6.89.383-6.89.128-.51-.128-.638-.511-.638a19.354,19.354,0,0,0-7.661-.128c-.639.128-.639.128-.639.893,0,2.169.128,4.338.128,6.38,0,.511-.128.638-.511.766a6.739,6.739,0,0,0-1.532.383c-.383.128-.383.51,0,.638" transform="translate(-31.419 0.066)" fill="#fff" fill-rule="evenodd"/>
    <path id="패스_86" d="M468.977,238.31a7.317,7.317,0,0,1,.894-1.659s.383,1.4.638,2.169a4.007,4.007,0,0,1-1.532-.511m-10.088,63.161H457.74c-1.149-.128-1.788-.255-3.192-.51h-.383c-.255,1.276-.511,1.021-.638,1.148,0,.128-.511.255-.894.128-.128,0-.255.128-.383.255l-1.149.766a7.134,7.134,0,0,1-4.214,1.276h-1.4a.844.844,0,0,0-.766.893s-.128,0-.128.255c-.255.638-.255.765.511,1.021a20.433,20.433,0,0,0,2.682.638,10.972,10.972,0,0,0,4.979.255c1.4-.255,2.937-.383,2.937-.383,0,.638-.128.893.255.893.894.128,1.915.255,2.809.383.383,0,.383-.255.511-.383.128-.511.128-.893.256-1.4v-.511c0-.128.128-.255.128-.51a6.61,6.61,0,0,0-.511-2.68c-.511-.383-.256-1.148-.256-1.4Zm1.4-.51c.128-1.276.383-3.573.511-4.849a.967.967,0,0,1,.256-.511l2.3-2.3c.128-.255.383-.383.638-.638.128.128.128.255.256.383.255.383.511.383.894.128a23.221,23.221,0,0,1,2.043-1.659.47.47,0,0,0,.128-.383v-.128c-.255-.51-.638-1.021-.894-1.659l-.128.128c-.128,0,0-.128-.128-.511-.128-.128-.128-.255-.383-.51a3.2,3.2,0,0,0-.511-.893l-1.149-1.148a18.556,18.556,0,0,1-2.682,2.042v-.128l.383-.383c.766-.638,1.915-1.531,2.426-2.041.255-.256.255-.383,0-.638-.766-1.276-1.4-2.552-2.3-3.828a1.771,1.771,0,0,1-.256-1.4v-.128a24.486,24.486,0,0,1,.128-3.062,1.086,1.086,0,0,1,.383-.638c1.916-1.531,3.959-3.062,5.874-4.466.766-.51,1.66-1.148,2.426-1.659,1.915-1.4,3.831-2.679,5.746-4.083a1.817,1.817,0,0,1,.766-.255,12.116,12.116,0,0,0,5.235-.255,9.218,9.218,0,0,0,3.32-1.787c-.894-2.169-1.788-4.21-2.682-6.252-.766-2.169-1.4-4.466-2.3-6.635v-.255c0-.255.128-.383.383-.51.766-.383,1.4-.766,2.043-1.148a1.037,1.037,0,0,0,.511-1.021v-.128c-.128-.893-.256-1.659-.383-2.552-.894-3.19-1.788-6.38-2.809-9.57a12.434,12.434,0,0,0-1.021-2.807,7.087,7.087,0,0,0-2.682-3.445,24.647,24.647,0,0,1-2.937-2.424,20.111,20.111,0,0,0-1.66-1.659q-.191-.191-.383.383c-.383.511-3.064,3.828-3.7,4.466v.383a8.46,8.46,0,0,1,.511,1.4c-.383.766-.639,1.659-1.021,2.679a17.5,17.5,0,0,0-.639,3.573,1.62,1.62,0,0,1-.128.766v.893a29.289,29.289,0,0,0,.638,5.742.394.394,0,0,1,.128.255c0,.255-.128.383-.511.383-1.915.638-3.831,1.4-5.746,2.042a4.251,4.251,0,0,0-.766.383c-.128.511-.511.511-.894.638a2.613,2.613,0,0,1-2.171-.383,2.713,2.713,0,0,0-2.937.128,1.859,1.859,0,0,0-.894,1.659v.255a1.753,1.753,0,0,0,1.021,1.276,1.653,1.653,0,0,1,1.277-1.659,6.219,6.219,0,0,1,.894-.383,1.568,1.568,0,0,1,1.915.255,13.969,13.969,0,0,0,1.915,1.021,1.779,1.779,0,0,0,1.788.128c.766-.383,1.149-.255,1.532.51a5.809,5.809,0,0,1,.638,2.935,2.813,2.813,0,0,1-.128,1.021c.894-.128,1.66-.255,2.426-.383v.638c0,.128,0,.128-.128.255,0,.128-.256.128-.511.128l-7.661,1.914a1.153,1.153,0,0,0-.639.128v-2.807a1.436,1.436,0,0,0,1.15-2.424,4.32,4.32,0,0,0-.766-.766c-.511-.638-1.66-.383-2.171.383a1.89,1.89,0,0,0,.128.766,1.818,1.818,0,0,0,.255.766H455.7v4.721a5.548,5.548,0,0,0-.639.128c-2.554.893-5.108,1.531-7.278,2.934a5.581,5.581,0,0,0-.766.893,3.5,3.5,0,0,0-.255,2.552c.128.511.255,1.148.383,1.659a34.946,34.946,0,0,1,8.172-1.021,26.829,26.829,0,0,1,4.6.383l-.256.255c-1.277,1.021-2.426,2.169-3.7,3.318l-.128.128c-.256-.638-.511-1.276-.766-1.786-.128-.383.383-.511.639-.638,1.149-.255,2.17-.638,3.32-.893a33.783,33.783,0,0,0-3.7-.255,34.758,34.758,0,0,0-8.044,1.021c.383.893.766,1.787,1.276,2.807,1.916,4.338,3.959,8.8,6,13.142,0,.255.128.638.128.893,0,2.169-.638,12.76-.893,15.567h0c0,.128.255.128.383.128a24.9,24.9,0,0,0,5.491.638c.383,0,.511,0,.638-.255" transform="translate(-18.017 -10.289)" fill="#fff"/>
    <path id="패스_87" d="M482.946,218.775a68.284,68.284,0,0,0,7.278,0" transform="translate(-34.796 -7.47)" fill="#fff"/>
    <path id="패스_89" d="M487.7,218.381h1.021l-.255-.51-.638.383Z" transform="translate(-36.866 -7.075)" fill="#fff"/>
    <path id="패스_92" d="M475.834,271.689h-.128l.128-.128c.255-.255.894-.128.894-.128v.128a2.019,2.019,0,0,0-.894,0Z" transform="translate(-31.641 -30.399)" fill="#fff"/>
    <path id="패스_94" d="M483.625,274.743s12-4.083,15.067-6" transform="translate(-35.092 -29.239)" fill="#fff"/>
    <path id="패스_95" d="M484.983,261.284a26.074,26.074,0,0,0,.766,3.573" transform="translate(-35.683 -25.99)" fill="#fff"/>
    <path id="패스_96" d="M488.829,277.564s1.788,9.952,7.534,10.973" transform="translate(-37.359 -33.082)" fill="#fff"/>
    <path id="패스_97" d="M467.706,275.529a1.155,1.155,0,1,0,1.276,1.148,1.259,1.259,0,0,0-1.276-1.148m0,2.3a1.155,1.155,0,1,1,1.276-1.148,1.179,1.179,0,0,1-1.276,1.148" transform="translate(-27.6 -32.196)" fill="#fff"/>
    <path id="패스_99" d="M486.6,247.265s.766,1.276,3.065,1.148c0,0,.128,0,.128.255v.511a.125.125,0,0,1-.128.128s-2.554,0-3.32-1.021V247.9l.128-.51a.125.125,0,0,1,.128-.128" transform="translate(-36.275 -19.882)" fill="#fff"/>
    <path id="패스_100" d="M476.411,287.752a44.8,44.8,0,0,0-8.172-1.531v-2.552" transform="translate(-28.388 -35.742)" fill="#fff"/>
    <path id="패스_102" d="M455.936,371.754c-.511,0-1.021.128-1.66.128a14.226,14.226,0,0,1-2.17-.255c-.383.893-.256,1.148-.256,1.148h-.128a.959.959,0,0,0,.894.893h2.937a.779.779,0,0,0,.894-.383,6.744,6.744,0,0,0,.128-1.659,1.151,1.151,0,0,0-.638.128" transform="translate(-21.192 -74.064)" fill="#fff"/>
    <path id="패스_103" d="M459.641,361.677a11.5,11.5,0,0,0,5.874.51" transform="translate(-24.642 -69.729)" fill="#fff"/>
    <path id="패스_105" d="M481.527,338.84s-1.532,2.3-2.426,3.318" transform="translate(-33.121 -59.78)" fill="#fff"/>
    <path id="패스_106" d="M456.87,371.33a.768.768,0,0,0-.511.128c-.638,0-1.149.128-1.788.128a14.23,14.23,0,0,1-2.17-.255l.128-.256a9.035,9.035,0,0,0,3.7,0,1.62,1.62,0,0,0,.766-.128Z" transform="translate(-21.488 -73.769)" fill="#fff"/>
    <path id="패스_107" d="M467.384,359.532s-.128.128-1.277,0h-1.021a33.207,33.207,0,0,1-3.32-.383,1272126285023.357,1272126285023.357,0,0,1-.766-.255l.128-.383c-.128.128.128.128.256.128a24.893,24.893,0,0,0,5.491.638c.383,0,.638,0,.638-.255Z" transform="translate(-25.234 -68.349)" fill="#fff"/>
    <path id="패스_108" d="M479.78,227.555c.383.511.766.383,1.276.383.894-.128,1.15,0,1.533.766a5.438,5.438,0,0,1,.638.893c.128,0,.128-.255.256-.383.128-.766.255-1.659.383-2.425a6.189,6.189,0,0,1,.128-1.531c0-.128-.128-.128-.256,0-1.277.893-2.17,2.169-3.958,2.3" transform="translate(-33.416 -10.252)" fill="#fff" fill-rule="evenodd"/>
    <path id="패스_109" d="M540.544,390.71l-.128-.638h-9.7l6.9-6.89-.383-.383-6.9,6.89v-9.7h-.511v9.7l-6.9-6.89-.383.383,6.9,6.89H519.6v.638h9.832l-6.9,6.89.383.383,6.9-6.89v9.7h.511v-9.7l6.9,6.89.383-.383-6.9-6.89Z" transform="translate(-50.767 -77.709)" fill="#fff"/>
    <path id="패스_111" d="M471.107,333.391v-.51h-2.3v.128H440.462l26.942-8.677v.128l2.3-.766-.128-.128-.128-.638-2.3.766.128.128L440.335,332.5l22.856-16.588.128.128,1.915-1.4-.128-.128-.383-.51-1.915,1.4h.128l-22.984,16.588,16.727-22.84v.128l1.4-1.914-.128-.128-.511-.383-1.4,1.914.128.128-16.6,22.84,8.683-26.923h.128l.766-2.169h-.128l-.255-.128-.383-.128-.766,2.169.128.128L438.93,331.6l.128-28.327h.128v-2.424h-.766l-.128,2.424h.255l-.128,28.327-8.683-26.923.128-.128-.766-2.169h-.128l-.638.255.766,2.169h.128l8.683,26.923-16.6-22.968h.128l-1.4-1.914H419.9l-.511.383,1.4,1.914h.128l16.472,22.84L414.542,315.4l.128-.128-1.915-1.4V314h-.128l-.128.128-.255.383,1.915,1.4.128-.128L437.143,332.5l-26.942-8.8.128-.128-2.3-.766v.128l-.128.255-.128.383,2.3.766V324.2l26.942,8.8H408.668v-.128l-2.3-.128-.128.383v.51h2.426v-.128h28.347l-26.942,8.677-.128-.128-2.171.766v.128l.255.638,2.171-.766v-.128l26.942-8.677-22.984,16.588-1.915,1.276v.128l.255.255.128.255,1.915-1.276v-.128L437.4,334.539l-16.6,22.84-.128-.128-1.4,1.914.128.128.255.128.255.255,1.4-1.914h-.128l16.727-22.968-8.81,26.923h-.128l-.766,2.169.128.128h.255l.383.128.766-2.169h-.128l8.81-26.923v28.2h-.128v2.424h.766v-2.3h-.128V335.049l8.683,26.923.638,2.3.128-.128.638-.128-.638-2.3h-.128l-8.81-26.923,16.6,22.968v.128l1.277,1.914.128-.128.638-.383-1.4-1.914-.128.128-16.6-22.968,22.856,16.715h-.128l1.915,1.4.128-.128v.128l.128-.255.255-.383-1.915-1.4v.128l-22.984-16.715,26.942,8.8v.128l2.171.766.128-.128v-.255l.128-.383-2.171-.766v.128l-26.942-8.8,28.347.128v.128h2.3v-.383Z" transform="translate(-1.377 -43.231)" fill="#fff"/>
  </g>
</svg>
